<?xml version="1.0" standalone="no"?><!DOCTYPE svg PUBLIC "-//W3C//DTD SVG 1.1//EN" "http://www.w3.org/Graphics/SVG/1.1/DTD/svg11.dtd"><svg t="1717824545046" class="icon" viewBox="0 0 1829 1024" version="1.1" xmlns="http://www.w3.org/2000/svg" p-id="4626" xmlns:xlink="http://www.w3.org/1999/xlink" width="357.2265625" height="200"><path d="M604.809928 0.083716c1.172023 12.138811-2.092899 28.128556 4.353228 35.579275 18.668655 21.514997-0.334864 24.193907-12.222527 31.393478l-9.041322-0.502296c-5.943832-7.701867-11.887664-15.403733-14.650289-18.919802 5.274104-17.161768 10.045913-32.398069 14.734005-47.634371 5.692684 0.083716 11.217936 0.083716 16.826905 0.083716z" fill="#F3EEEE" p-id="4627"></path><path d="M203.643137 594.4669c-6.864707-100.124266-6.111264-199.495088 30.30517-295.18241 3.934649-10.297061 7.283287-20.761553 10.883073-31.14233 22.352156 11.887664 44.620597 23.691611 66.972753 35.579275 0 1.925467-0.167432 3.767217-0.41858 5.692684-7.115855 14.817722-16.324609 29.049432-20.845269 44.620597-28.04484 96.52448-31.56091 195.979019-26.370522 295.182409 1.088307 21.263849 24.863635 41.355675 38.174469 62.033513l59.856898 83.464793-8.287878 42.443982c-2.67891-0.083716-5.441536-0.251148-8.120446-0.334863-8.45531-5.525252-16.826904-11.13422-25.282214-16.659473l-8.120447-8.622742-8.287878-8.539026c-1.423171-1.088307-2.846342-2.092899-4.269513-3.181205 1.004591 1.506887 2.092899 2.930058 3.09749 4.436945 2.846342 2.762626 5.692684 5.525252 8.45531 8.287878 2.846342 2.762626 5.692684 5.441536 8.539026 8.204162l25.031067 16.994336c2.846342 2.67891 5.692684 5.274104 8.539026 7.953014l0.167431 0.167432 8.287879 8.287879h-0.083716l15.403733 19.17095c-81.957907-18.082643-115.276851-83.967089-147.507489-150.604978-5.35782-10.966788-6.864707-23.859043-10.213345-35.830423-5.190388-30.807466-10.548209-61.614933-15.906028-92.422399z m79.362712 180.240421c-0.753443 2.344046-2.595194 5.190388-1.841751 6.697276 0.920875 1.758035 4.018365 2.427762 6.19498 3.599785 0.669728-2.092899 2.427762-4.855525 1.758035-6.19498-1.004591-1.925467-3.934649-2.762626-6.111264-4.102081z" fill="#8BBCE8" p-id="4628"></path><path d="M964.369896 234.572068c-31.644626 16.743188-31.477194 27.123965 0.753443 58.182579-8.371594 26.621669-28.212272 54.415362 8.120446 76.265222 0.083716 8.287878 0.167432 16.49204 0.167432 24.779919 14.147994 8.287878 28.295988 16.49204 42.443983 24.779919-25.951942 41.271959-76.432654 77.77211-25.951942 133.86179-2.762626 11.217936-5.525252 22.519588-8.371594 33.737524-25.533362 32.565501-50.815576 6.278696-76.181507-0.418579 3.09749-30.388887 6.278696-60.777773 9.376185-91.166661 2.67891-14.399142 9.292469-29.300579 7.450719-43.029993C915.647218 404.013133 906.187316 356.797342 897.815722 309.497835L936.157623 301.461105c-27.375113-15.403733-53.578202-24.863635-79.781292-25.031067-22.352156-0.167432-44.788029 10.297061-67.140185 15.989745-0.083716-2.511478-0.251148-5.106672-0.251148-7.618151 13.896846-16.743188 27.877408-33.570092 41.857971-50.31328 15.152585 4.102081 30.221455 8.120446 45.876336 12.389959 3.09749-11.050504 5.943832-21.431281 10.129629-36.50015 7.115855 19.58953 11.97138 33.151513 20.510406 56.675692 7.534435-27.877408 11.803948-43.53229 16.07346-59.187171 4.353229 1.590603 8.622742 3.181206 12.975971 4.688093 4.939241 1.841751 9.794765 3.767217 14.65029 5.608968 4.520661 5.525252 8.957606 10.966788 13.310835 16.408325z" fill="#87BDEA" p-id="4629"></path><path d="M587.983023 66.554173l9.041322 0.502296c31.56091 36.835014 45.457756 35.160695 67.307617-7.953014l15.487449-1.506887 0.502296 1.506887c32.063206 11.887664 63.707831 24.947351 96.440764 34.658399 8.120446 2.427762 19.58953-6.362412 29.551727-9.962197 5.106672 0.083716 10.213345 0.251148 15.320018 0.334864l9.208753 8.204162c2.762626 19.422098 5.608968 38.927913 8.371594 58.350011-5.525252-2.762626-11.13422-5.525252-16.659472-8.287878-12.055096-15.236301-17.412916-32.984081-47.885519-21.431281-35.662991 13.645698-76.683802 14.399142-115.611715 18.333791-25.533362 2.595194-51.736452-0.920875-77.269813 1.841751-42.360266 4.604377-84.385669 11.97138-126.578504 18.166359-0.669728-2.930058-1.339455-5.860116-2.092898-8.706458 6.278696-16.826904 12.473675-33.570092 18.752371-50.396996 34.909548-10.045913 69.819095-20.175542 104.728642-30.221455 3.767217-1.172023 7.534435-2.26033 11.385368-3.432354z" fill="#A5CFF3" p-id="4630"></path><path d="M981.531664 586.095305c2.762626-11.217936 5.525252-22.519588 8.371594-33.737524 5.190388 0.920875 10.297061 1.925467 15.487449 2.846342 0.167432 1.758035 0.502296 3.51607 1.088307 5.274104l8.790174 8.790174 16.157177-1.255739c2.930058 22.68702 5.860116 45.290324 8.873889 67.977344 0.167432 25.700794 0.251148 51.401588 0.41858 77.102382-0.334864 2.595194-0.837159 5.106672-1.506887 7.534435-8.371594 18.333791-16.743188 36.751298-25.114782 55.08509-1.506887 1.004591-3.09749 1.925467-4.604377 2.762626-5.608968 4.102081-11.301652 8.287878-16.994336 12.473675-11.803948 12.808539-23.691611 25.533362-35.495559 38.341901-11.301652 5.35782-22.519588 10.71564-33.821241 16.073461-2.846342-11.217936-5.692684-22.435872-8.539026-33.737525 24.947351-24.193907 54.080498-45.37404 73.670029-73.335164 21.263849-30.221455 10.213345-74.842052-14.817722-92.00382L981.531664 586.095305z" fill="#80B1E1" p-id="4631"></path><path d="M1005.390707 555.204123c-5.190388-0.920875-10.297061-1.925467-15.487449-2.846342-50.480713-56.089681 0-92.589831 25.951942-133.86179 5.274104-19.422098 10.548209-38.844197 15.822312-58.350011 5.860116-8.539026 11.720232-16.994336 17.664064-25.533362 5.022956 2.930058 9.962197 5.860116 14.985154 8.790173 3.09749 11.13422 6.19498 22.184724 9.208753 33.318945l33.653809 33.402661 9.376185 8.371594c-7.534435 3.013774-15.152585 6.027548-23.859043 9.543617 2.762626 9.627333 6.027548 21.012701 9.292469 32.314353-3.850933 2.67891-7.701867 5.274104-11.469084 7.953015-2.511478-2.67891-5.106672-5.35782-7.61815-8.03673l-26.119374-48.973826-6.278696-12.055096c-2.092899 1.506887-6.19498 3.432354-5.943832 4.353229 1.339455 5.35782 3.683501 10.464493 5.692684 15.738597 10.297061 22.435872 20.510406 44.871745 30.807467 67.307617 5.274104 7.953014 10.548209 15.906029 15.738597 23.775327l3.432353 0.083716c-3.181206 5.608968-6.446127 11.217936-9.627333 16.743189-8.539026 5.692684-17.078052 11.469084-25.617078 17.161768-2.67891-2.762626-5.441536-5.525252-8.120446-8.204163-2.67891-11.217936-5.274104-22.352156-7.953015-33.570092l-7.032139-30.388887c-3.432354-3.934649-6.864707-7.953014-10.297061-11.887664-0.586012-8.87389-1.172023-17.74778-2.511478-39.095344-7.869298 17.998927-10.71564 24.779919-13.645698 31.477194l-8.036731 73.753744c-0.334864 3.264922-0.586012 6.529843-0.920875 9.794765-1.088307 0.669728-3.181206 1.841751-3.09749 2.009183 0.920875 1.925467 2.092899 3.683501 3.264922 5.525252l0.502296 0.251148c-0.669728 3.683501-1.172023 7.450719-1.758035 11.13422z" fill="#BB7EA2" p-id="4632"></path><path d="M562.449661 929.079517c-52.406179-6.19498-106.570393-6.111264-149.935251-43.281142-5.441536-24.110191-10.883072-48.220382-16.408324-72.330573 8.204162-0.920875 16.324609-1.925467 24.528771-2.846342 5.608968 0.502296 11.217936 1.088307 16.743188 1.590603 42.025403 30.640035 84.050805 61.280069 125.992492 91.920104-0.334864 8.371594-0.669728 16.659472-0.920876 24.94735z" fill="#6172AA" p-id="4633"></path><path d="M765.042239 937.869691c-3.348638 46.378632-18.836087 61.531217-67.475048 66.21931-17.664064-9.878481-36.835014-17.915211-52.657328-30.221455-20.342974-15.906029-38.090753-35.160695-56.92684-52.992191 60.275478 26.956533 118.792921 22.352156 175.887193-9.376186 0.41858 8.706458 0.753443 17.580348 1.172023 26.370522z" fill="#FBBEBD" p-id="4634"></path><path d="M311.804133 303.805151c-22.352156-11.887664-44.620597-23.691611-66.972753-35.579275-0.251148-2.26033-0.41858-4.520661-0.502296-6.780991l4.018365-6.529844c-3.767217-0.837159-7.450719-1.674319-11.217936-2.595194-23.273032-36.249003-16.49204-53.159623 22.435872-58.266295 17.3292-2.26033 34.407252-6.529843 51.652736-9.962197 5.860116 19.505814 11.720232 39.011629 17.496632 58.601159 2.595194 11.217936 5.106672 22.435872 7.618151 33.653808C330.975083 284.969064 325.533547 293.675522 320.175727 302.38198c-2.762626 0.41858-5.608968 0.920875-8.371594 1.423171z" fill="#F3EEEE" p-id="4635"></path><path d="M839.130847 150.688694c-2.762626-19.422098-5.608968-38.927913-8.371594-58.350011 6.446127-16.994336 12.892255-33.988672 19.003519-49.978417 37.002446 5.022956 61.280069 13.478267 57.429136 53.661919-1.088307 11.5528 10.464493 24.277623 16.240892 36.50015-0.669728 10.129629-1.339455 20.259258-2.176614 32.146922-10.966788-7.618151-21.180133-14.65029-31.393478-21.766145-8.539026 2.511478-17.078052 5.106672-25.617078 7.618151-2.762626 0.083716-5.525252 0.251148-8.287878 0.502295-5.608968 0-11.217936-0.083716-16.826905-0.083716v-0.251148z" fill="#CDD1DF" p-id="4636"></path><path d="M587.983023 920.791639c18.836087 17.831496 36.50015 37.169878 56.92684 52.992191 15.822313 12.306243 34.993263 20.342974 52.657328 30.221455-25.282214 38.927913-60.610342 9.376185-88.48775 7.367002-16.49204-1.172023-44.034585-27.626261-38.425618-60.526625 1.088307-6.613559-5.274104-14.482858-8.204162-21.766145 0.334864-8.287878 0.586012-16.575756 0.920876-24.863635 8.120446 3.013774 16.324609 6.027548 24.445054 9.041322l0.502296 7.869299-0.334864-0.334864z" fill="#F8F0ED" p-id="4637"></path><path d="M1048.922996 266.886421l-14.817721-21.096417c-1.423171 7.953014-5.274104 16.324609-3.767218 23.691611 2.511478 13.143403 8.287878 25.617078 12.641108 38.341901-23.607895-5.106672-47.215791-10.297061-70.823687-15.403733 7.701867-19.254667 11.13422-42.778846 24.528771-56.424544 11.13422-11.301652 37.169878-18.919803 50.899292-13.561983 12.473675 4.855525 17.245484 29.384295 25.365931 45.206608L1048.922996 266.886421z" fill="#CC98B2" p-id="4638"></path><path d="M1056.792295 536.116888c2.67891 2.762626 5.441536 5.525252 8.120446 8.204163 6.697275 18.250075 13.394551 36.416434 20.00811 54.666509-4.855525 28.547136-7.534435 57.764-15.654881 85.306545-3.348638 11.385368-18.668655 19.254667-28.547136 28.714567-0.167432-25.700794-0.251148-51.401588-0.41858-77.102382 3.09749-32.900365 6.111264-65.884446 9.208754-98.868526 2.344046-0.502296 4.771809-0.837159 7.283287-0.920876z" fill="#90B0D9" p-id="4639"></path><path d="M1014.013449 775.711913c8.371594-18.333791 16.743188-36.751298 25.114782-55.08509 13.310835 90.162069-3.683501 176.305772-29.133147 261.277453-3.934649-0.41858-7.869298-0.920875-11.803948-1.339455 3.51607-21.431281 6.948423-42.862562 10.464493-64.293843 3.599785-21.766145 9.711049-43.53229 10.380776-65.38215 0.837159-24.947351-3.09749-50.145849-5.022956-75.176915z" fill="#C785AD" p-id="4640"></path><path d="M1123.262752 669.811247c19.422098 74.842052 25.282214 150.186399 9.208754 226.451621V846.451883c-7.869298 12.808539-11.217936 18.250075-14.566574 23.775327l-8.539026-192.965245c4.604377-2.511478 9.292469-4.939241 13.896846-7.450718z" fill="#CC98B2" p-id="4641"></path><path d="M203.643137 594.4669c5.35782 30.807466 10.631925 61.614933 15.989744 92.422399-4.185797-8.204162-8.287878-16.408325-12.473675-24.528771-2.344046 0.41858-4.604377 0.753443-6.948423 1.172023 8.706458 42.611414 17.496632 85.222828 26.20309 127.917958-3.013774 1.255739-6.027548 2.427762-9.041322 3.683502-5.608968-12.389959-14.566574-24.361339-16.324609-37.33731-7.450719-54.499078-34.407252-109.584167 2.595195-163.329801z" fill="#AAC2DE" p-id="4642"></path><path d="M972.155478 292.419783c23.607895 5.106672 47.215791 10.297061 70.823687 15.403733 2.009183 0.334864 4.018365 0.753443 5.943831 1.339455 0.167432 8.45531 0.251148 16.91062 0.41858 25.449647-5.860116 8.539026-11.720232 16.994336-17.580348 25.533362-10.883072-2.930058-21.849861-5.860116-32.732933-8.706458-5.35782-10.213345-10.631925-20.510406-15.989744-30.723751-3.013774 7.701867-6.027548 15.320017-9.041322 23.021884l-0.753444 25.282214c-36.332719-21.849861-16.49204-49.643553-8.120446-76.265222 2.344046 0.502296 4.688093 0.41858 7.032139-0.334864z" fill="#C785AD" p-id="4643"></path><path d="M328.714753 242.77623c-5.860116-19.505814-11.720232-39.095345-17.496632-58.601159 2.930058-0.502296 5.7764-1.088307 8.706458-1.590603 21.012701 16.49204 32.398069 11.5528 33.904956-15.236301l-0.837159 0.669727c22.184724-13.81313 44.453165-27.709977 66.637889-41.523107-1.088307 8.790174-2.26033 17.496632-3.348637 26.286806 0 0 0.502296 2.595194 0.502295 2.67891-5.274104 4.688093-10.548209 9.459901-15.822313 14.147994-24.110191 24.361339-48.136666 48.722678-72.246857 73.167733z" fill="#616874" p-id="4644"></path><path d="M396.106086 813.467802c5.441536 24.110191 10.883072 48.220382 16.408324 72.330573l-3.348637 31.393478C401.296474 902.039268 398.115268 895.844288 395.017778 889.733025c-4.436945-12.641107-7.953014-25.700794-13.980562-37.504742-1.088307-2.092899-12.473675 1.088307-19.087234 1.925467H362.033698l-8.287879-8.287879-0.251147-0.167432c0.167432-2.846342 0.251148-5.608968 0.418579-8.45531l8.287878-42.443982c11.301652 6.111264 22.603304 12.389959 33.904957 18.668655z" fill="#80B1E1" p-id="4645"></path><path d="M765.042239 937.869691c-0.41858-8.790174-0.753443-17.664064-1.172023-26.454238 33.235229-12.892255 57.512852-50.564429 100.542846-36.249002-1.925467 1.758035-2.26033 3.51607-0.920876 5.441536-10.045913 5.943832-20.091826 11.887664-30.221455 17.74778-22.68702 13.143403-45.457756 26.286806-68.228492 39.513924z" fill="#6172AA" p-id="4646"></path><path d="M806.230482 83.799657c-9.962197 3.599785-21.347565 12.389959-29.551727 9.962197-32.732933-9.711049-64.377559-22.770736-96.440764-34.658399l16.07346-2.762626c5.943832 0.083716 11.97138 0.083716 17.915212 0.167431 13.227119-4.520661 26.454237-9.041322 39.681356-13.478266 3.599785 10.213345 7.115855 20.42669 10.715641 30.640034 8.03673 0.502296 16.157177 1.088307 24.193907 1.590603 5.860116 2.846342 11.636516 5.692684 17.412915 8.539026z" fill="#616874" p-id="4647"></path><path d="M1123.262752 669.811247c-4.604377 2.511478-9.208754 4.939241-13.896846 7.450718-8.204162-26.035658-16.324609-52.071316-24.528771-78.190689-6.613559-18.250075-13.310835-36.50015-20.00811-54.750225 8.539026-5.692684 17.078052-11.469084 25.617078-17.161768 10.966788 47.634371 21.933577 95.101309 32.816649 142.651964z" fill="#C785AD" p-id="4648"></path><path d="M889.862708 142.903112c10.213345 7.115855 20.42669 14.147994 31.393478 21.766145 0.753443-11.887664 1.423171-22.017293 2.176614-32.146922 11.217936 11.469084 22.435872 22.938168 33.653809 34.490968l-1.255739 25.031066c-6.529843-5.190388-13.059687-10.297061-29.133148-22.938167 9.208754 19.756962 13.059687 28.128556 16.91062 36.416434-2.344046 2.344046-4.688093 4.771809-7.032139 7.115855-4.353229-1.590603-8.622742-3.181206-12.975971-4.688093-10.548209-13.394551-21.180133-26.789101-31.728342-40.183652l-2.009182-24.863634zM576.597655 69.902811c-34.909548 10.045913-69.819095 20.175542-104.728642 30.221455-0.920875-2.595194-0.837159-5.106672 0.334863-7.534435 6.278696-2.26033 12.557391-4.604377 18.919803-6.864707l19.087235-10.799356 36.165286-9.794766c10.129629 1.590603 20.175542 3.181206 30.221455 4.771809z" fill="#616874" p-id="4649"></path><path d="M1117.904932 870.22721c3.348638-5.441536 6.697275-10.883072 14.566574-23.775327v49.810985c-3.348638 18.752371-6.613559 37.504742-9.962197 56.173397l-15.236302-2.260331c3.51607-26.621669 7.032139-53.327055 10.631925-79.948724z" fill="#C785AD" p-id="4650"></path><path d="M419.630265 126.411071c-22.184724 13.81313-44.453165 27.709977-66.637889 41.523107 6.027548-8.706458 11.97138-17.496632 17.998927-26.203089 2.762626-2.344046 5.608968-4.604377 8.371594-6.948423 4.185797-4.353229 8.371594-8.790174 12.557392-13.143403-4.353229-1.674319-8.706458-3.264922-13.143403-4.939241 14.23171-3.264922 28.46342-6.529843 42.69513-9.878481-0.586012 6.613559-1.255739 13.059687-1.841751 19.58953z" fill="#F3EEEE" p-id="4651"></path><path d="M764.707375 73.586312c-3.599785-10.213345-7.115855-20.42669-10.71564-30.640034 13.645698 2.846342 29.216864 2.595194 40.351084 9.459901 11.301652 6.948423 18.333791 20.845269 27.207681 31.728342-5.106672-0.083716-10.213345-0.251148-15.320018-0.334864-5.7764-2.846342-11.5528-5.692684-17.329199-8.622742-8.03673-0.502296-16.157177-1.004591-24.193908-1.590603z" fill="#CDD1DF" p-id="4652"></path><path d="M437.378045 67.056469c-20.594122 3.348638-41.104527 6.613559-69.233084 11.13422C402.301065 34.323536 415.025888 33.82124 437.378045 67.056469z" fill="#F3EEEE" p-id="4653"></path><path d="M914.55891 811.626051c2.846342 11.217936 5.692684 22.435872 8.539027 33.737525-11.217936 11.050504-22.435872 22.101009-33.737525 33.151512-2.595194 8.706458-5.190388 17.496632-7.869298 26.20309 2.846342-22.352156 5.692684-44.704313 8.622742-66.972753 2.092899-6.446127 4.102081-12.808539 6.194979-19.170951 6.111264-2.344046 12.222527-4.604377 18.250075-6.948423z" fill="#78A2CD" p-id="4654"></path><path d="M889.444128 878.515088c11.217936-11.050504 22.435872-22.101009 33.737524-33.151512 11.301652-5.35782 22.519588-10.71564 33.821241-16.073461-12.641107 30.054023-33.988672 47.969234-67.558765 49.224973z" fill="#A2B5CC" p-id="4655"></path><path d="M1090.446103 468.22326c3.850933-2.67891 7.701867-5.274104 11.469084-7.953014 30.305171 28.630852 29.886591 38.844197-1.84175 50.145848l-3.348638-0.083716c0.753443-2.427762 1.172023-4.855525 1.339455-7.450718l-7.534435-25.533362c0-3.013774 0-6.027548-0.083716-9.125038z" fill="#F8F0ED" p-id="4656"></path><path d="M696.395167 56.340829l-16.07346 2.762626-0.502296-1.506887c-5.441536-2.427762-10.799356-4.855525-16.240893-7.283287-0.41858-11.5528-0.920875-23.021884-1.339455-34.574684 6.278696 3.348638 12.557391 6.697275 18.752371 10.129629 5.106672 10.129629 10.213345 20.259258 15.403733 30.472603zM546.459916 65.131002l-36.165286 9.794766c-19.087235-41.606823 17.3292-27.375113 36.165286-34.6584v24.863634z" fill="#F3EEEE" p-id="4657"></path><path d="M1100.82688 326.659603c11.720232-2.26033 23.356748-4.436945 35.076979-6.697275 1.590603 4.855525 3.09749 9.711049 4.688093 14.482858l-35.746707 10.045913c-1.423171-5.860116-2.762626-11.803948-4.018365-17.831496z" fill="#FCF9F5" p-id="4658"></path><path d="M370.991303 141.731089c-6.027548 8.706458-11.97138 17.496632-17.998927 26.203089l0.837159-0.669727c-8.371594 2.846342-16.826904 5.692684-25.198498 8.539026 13.729414-15.906029 27.375113-31.812058 41.104527-47.718087 0.334864 4.604377 0.837159 9.125038 1.255739 13.645699z" fill="#616874" p-id="4659"></path><path d="M491.123679 85.725124c-6.278696 2.26033-12.557391 4.604377-18.919803 6.864707C460.651077 84.134521 449.014561 75.595495 437.378045 67.056469c17.915211 6.278696 35.830423 12.473675 53.745634 18.668655z" fill="#F3EEEE" p-id="4660"></path><path d="M1048.922996 266.886421l24.026476 0.753443c-0.920875 8.120446-1.758035 16.157177-2.678911 24.277623-7.032139-8.371594-14.23171-16.659472-21.347565-25.031066z" fill="#FCF9F5" p-id="4661"></path><path d="M955.747154 192.044369l1.255739-25.031066 23.189315 27.458829v13.143403l-0.502295 0.418579c-7.450719-2.762626-14.985154-5.525252-22.435872-8.287878-1.004591-2.595194-1.423171-5.106672-1.506887-7.701867z" fill="#78A2CD" p-id="4662"></path><path d="M1049.341576 334.612618c-0.167432-8.45531-0.251148-16.91062-0.41858-25.449647 25.868226-1.339455 25.36593 15.989745 24.026476 33.904957l-8.622742 0.251147c-5.022956-2.846342-9.962197-5.7764-14.985154-8.706457z" fill="#CDD1DF" p-id="4663"></path><path d="M890.197572 837.745425c-2.846342 22.352156-5.692684 44.704313-8.622742 66.972753v-0.167432c-5.943832-0.41858-11.887664-0.753443-17.831496-1.088307-0.334864-2.67891 0-5.274104 1.004591-7.785583l7.534435-42.946277 9.208754-14.23171c2.427762-0.669728 4.855525-1.339455 7.367002-1.841751 0 0.083716 1.339455 1.088307 1.339456 1.088307z" fill="#80B1E1" p-id="4664"></path><path d="M696.395167 56.340829c-5.106672-10.129629-10.213345-20.342974-15.403733-30.472603 11.13422 10.213345 22.184724 20.42669 33.318945 30.556318-6.027548 0-11.97138-0.083716-17.915212-0.083715zM957.170325 199.66252c7.534435 2.762626 14.985154 5.525252 22.435872 8.287878l-15.320017 26.62167c-4.353229-5.441536-8.790174-10.883072-13.143403-16.324609l-2.260331-9.292469c2.846342-3.09749 5.608968-6.19498 8.287879-9.29247z" fill="#CDD1DF" p-id="4665"></path><path d="M328.547321 175.887193c8.371594-2.846342 16.826904-5.692684 25.198498-8.539026-1.506887 26.789101-12.892255 31.728342-33.904956 15.236301 2.930058-2.26033 5.860116-4.520661 8.706458-6.697275z" fill="#A2B5CC" p-id="4666"></path><path d="M361.949982 854.15375c6.613559-0.753443 17.998927-3.934649 19.087234-1.925467 6.027548 11.803948 9.543617 24.863635 13.980562 37.504742-5.860116-5.441536-11.720232-10.966788-17.664063-16.408325l-15.403733-19.17095z" fill="#78A2CD" p-id="4667"></path><path d="M416.700207 155.376787s-0.502296-2.67891-0.502295-2.595194c12.306243-0.669728 24.612487-1.423171 36.91873-2.092899 0.669728 2.930058 1.339455 5.860116 2.092898 8.706458-12.808539-1.423171-25.617078-2.762626-38.509333-4.018365z" fill="#F3EEEE" p-id="4668"></path><path d="M1064.32673 343.402791l8.622742-0.251147c4.520661-1.172023 9.125038-2.344046 16.324608-4.185797-6.111264 14.734006-10.883072 26.20309-15.654881 37.672173-3.181206-11.050504-6.19498-22.184724-9.292469-33.235229zM1116.565477 418.412275l-9.376185-8.371594c8.87389-2.930058 17.831496-5.860116 26.705385-8.706458 1.172023 3.599785 2.344046 7.115855 3.516069 10.71564-6.948423 2.092899-13.896846 4.269513-20.845269 6.362412z" fill="#FCF9F5" p-id="4669"></path><path d="M992.414736 790.948214c5.692684-4.185797 11.385368-8.287878 16.994336-12.473675-5.692684 4.185797-11.385368 8.287878-16.994336 12.473675z" fill="#C785AD" p-id="4670"></path><path d="M872.366076 852.730579l-7.534435 42.946277-1.255739-14.985153c-1.339455-2.009183-1.088307-3.850933 0.920876-5.525252 2.595194-7.450719 5.274104-14.985154 7.869298-22.435872zM863.82705 903.546155c5.943832 0.334864 11.887664 0.753443 17.831496 1.088307-4.436945 3.767217-8.790174 7.534435-13.227119 11.301652-1.590603-4.102081-3.09749-8.287878-4.604377-12.389959z" fill="#78A2CD" p-id="4671"></path><path d="M980.192208 207.531819v-13.143403c4.771809 3.09749 9.543617 6.111264 14.399142 9.208753-4.855525 1.339455-9.627333 2.67891-14.399142 3.93465z" fill="#CDD1DF" p-id="4672"></path><path d="M378.776886 116.700022c4.353229 1.674319 8.706458 3.264922 13.143403 4.939241-4.185797 4.353229-8.371594 8.790174-12.557392 13.143403-0.251148-4.520661-0.586012-9.041322-0.837159-13.561983a6.061034 6.061034 0 0 1 0.251148-4.520661z" fill="#B286AA" p-id="4673"></path><path d="M378.442022 121.304399c0.251148 4.520661 0.586012 9.041322 0.83716 13.561983-2.762626 2.344046-5.608968 4.604377-8.371595 6.948423-0.41858-4.520661-0.837159-9.125038-1.339455-13.645699 3.013774-2.344046 5.943832-4.604377 8.87389-6.864707z" fill="#6172AA" p-id="4674"></path><path d="M237.129513 252.403563c3.767217 0.837159 7.450719 1.674319 11.217936 2.595194l-4.018365 6.529844c-2.344046-3.09749-4.771809-6.111264-7.199571-9.125038z" fill="#8BBCE8" p-id="4675"></path><path d="M663.578518 50.313281c5.441536 2.427762 10.799356 4.855525 16.240893 7.283287l-15.487449 1.506887-0.753444-8.790174z" fill="#CDD1DF" p-id="4676"></path><path d="M378.776886 92.171251c1.172023 0.669728 2.344046 1.255739 3.516069 1.925467-1.172023-0.669728-2.344046-1.255739-3.516069-1.925467zM378.776886 92.171251c-1.172023-0.669728-2.26033-1.339455-3.432354-1.925466 1.088307 0.586012 2.26033 1.255739 3.432354 1.925466z" fill="#F3EEEE" p-id="4677"></path><path d="M302.344231 711.166922c-13.310835-20.677838-37.086162-40.769663-38.174469-62.033513-5.190388-99.20339-1.674319-198.657929 26.370522-295.182409 4.520661-15.571165 13.81313-29.802875 20.845269-44.620597l1.339455 1.088308c-8.622742 52.741043-25.700794 105.900666-23.775327 158.306845 2.427762 67.140185 20.00811 133.778074 31.058614 200.667111-2.595194 8.790174-5.190388 17.580348-7.785583 26.286806-3.348638 5.190388-6.613559 10.380777-9.878481 15.487449z" fill="#78A2CD" p-id="4678"></path><path d="M302.344231 711.166922c3.264922-5.106672 6.613559-10.297061 9.878481-15.403733l15.320018 16.826904c2.427762 5.860116 4.939241 11.720232 7.367003 17.580347 6.362412 7.785583 12.808539 15.487449 19.17095 23.273032 5.7764-0.251148 11.469084-0.41858 17.245484-0.669727l24.528771-7.534435c13.896846-5.441536 27.793693-10.799356 41.690539-16.240893-7.869298 12.306243-15.738597 24.696203-27.542545 43.11371 2.009183 7.367003 6.278696 22.938168 10.548209 38.509333-8.204162 0.920875-16.324609 1.925467-24.528771 2.846342l-33.904956-18.836087c-19.924394-27.793693-39.848788-55.587385-59.773183-83.464793z" fill="#F8F0ED" p-id="4679"></path><path d="M320.426875 820.165077c8.45531 5.525252 16.826904 11.13422 25.282214 16.659473l-0.753443 0.837159-25.031067-16.994336c0 0.083716 0.502296-0.502296 0.502296-0.502296zM283.005849 774.707321c2.176614 1.339455 5.106672 2.26033 6.19498 4.102081 0.753443 1.339455-1.088307 4.102081-1.758035 6.19498-2.176614-1.172023-5.35782-1.758035-6.19498-3.599785-0.753443-1.506887 1.088307-4.353229 1.758035-6.697276z" fill="#78A2CD" p-id="4680"></path><path d="M353.829535 837.159413c-0.167432 2.846342-0.251148 5.608968-0.418579 8.455311-2.846342-2.67891-5.692684-5.274104-8.539026-7.953015l0.753443-0.837159c2.762626 0.083716 5.525252 0.251148 8.204162 0.334863zM319.924579 820.751089c-2.846342-2.762626-5.692684-5.441536-8.539026-8.204162l1.004591-1.004592 8.120447 8.622742c-0.083716 0-0.586012 0.586012-0.586012 0.586012zM353.662103 845.865871l8.287879 8.287879c-2.762626-2.846342-5.525252-5.608968-8.287879-8.287879zM311.804133 303.805151c2.762626-0.502296 5.608968-1.004591 8.371594-1.423171-2.511478 2.67891-5.022956 5.441536-7.450719 8.120446l-1.339455-1.088307c0.251148-1.925467 0.41858-3.767217 0.41858-5.608968zM311.301837 812.546927c-2.846342-2.762626-5.692684-5.525252-8.45531-8.287878l1.172023-1.25574 8.287878 8.539026-1.004591 1.004592zM302.846527 804.259049c-1.004591-1.506887-2.092899-2.930058-3.09749-4.436945 1.423171 1.088307 2.846342 2.176614 4.269513 3.181205l-1.172023 1.25574z" fill="#78A2CD" p-id="4681"></path><path d="M891.788174 167.683031c10.548209 13.394551 21.180133 26.789101 31.728342 40.183651-4.269513 15.654881-8.539026 31.309762-16.073461 59.187171-8.539026-23.52418-13.478267-37.169878-20.510405-56.675692l-10.129629 36.50015c-15.654881-4.269513-30.807466-8.371594-45.960052-12.389959-10.380777-29.802875-29.886591-40.937095-54.415362-32.063206-5.274104 13.561982-8.957606 22.854452-12.557391 32.146922-20.845269-5.608968-41.857971-16.659472-62.452092-15.822313-79.948724 3.09749-159.813732 10.045913-239.67874 15.487449-1.255739-3.51607-2.511478-6.948423-3.767218-10.464493l-4.018365 10.799357 0.167432-0.251148C446.000787 242.859946 437.796625 251.398972 429.592462 259.854282 398.533848 265.379534 367.391518 270.82107 336.332904 276.346322c-2.511478-11.217936-5.106672-22.352156-7.618151-33.570092l72.246857-73.251449c9.543617 7.701867 19.338382 22.26844 28.630852 21.933577 64.96357-2.427762 129.927141-12.557391 194.639564-10.966788 63.624115 1.506887 127.583095-45.708904 195.727871 9.543617 1.172023-21.431281 1.841751-34.490968 2.511478-47.634371 5.525252 2.762626 11.13422 5.525252 16.659472 8.287878v0.251148c3.432354 4.269513 6.864707 8.622742 10.297061 12.892255l6.529844-12.808539c2.762626-0.251148 5.525252-0.41858 8.287878-0.502295 9.208754 5.692684 18.417507 11.469084 27.542544 17.161768z" fill="#93C7F2" p-id="4682"></path><path d="M914.726342 494.593781c-3.09749 30.388887-6.278696 60.777773-9.376185 91.166661-5.441536 3.013774-10.883072 5.943832-16.324609 8.957605-5.106672-11.5528-10.213345-23.189316-15.320017-34.742115-26.537953-33.82124-61.447501-39.681356-100.961425-30.640035l-1.506887-27.291397c3.013774-63.707831 5.943832-127.415663 8.957606-191.039778l50.145848 67.726197c21.682429 30.221455 43.448574 60.44291 65.131003 90.664364 6.362412 8.371594 12.808539 16.743188 19.254666 25.198498z" fill="#F8F0ED" p-id="4683"></path><path d="M830.340673 378.647203l-50.145848-67.726197c3.013774-6.19498 6.027548-12.306243 9.041321-18.417507 22.435872-5.7764 44.788029-16.157177 67.140185-15.989745 26.286806 0.167432 52.406179 9.627333 79.781292 25.031067-12.724823 2.67891-25.533362 5.274104-38.341901 7.953014h-16.826904c-16.91062 23.1056-33.737524 46.127484-50.648145 69.149368z" fill="#B286AA" p-id="4684"></path><path d="M889.025548 594.634331c5.441536-3.013774 10.883072-5.943832 16.324609-8.957605 25.36593 6.697275 50.648145 32.984081 76.181507 0.418579-2.67891 20.091826-5.35782 40.183652-8.120447 60.191762-5.860116 13.143403-11.636516 26.286806-17.496631 39.430209-2.595194 0.669728-5.190388 0.920875-7.869299 0.837159 13.561982-50.145849-28.295988-53.243339-57.261704-67.223901l-1.255739-25.198498-0.502296 0.502295z" fill="#8BBCE8" p-id="4685"></path><path d="M789.15243 292.503499c-3.013774 6.111264-6.027548 12.306243-9.041321 18.417507-3.013774 63.707831-5.943832 127.415663-8.957606 191.039778-5.106672 0.251148-10.213345 0.41858-15.403733 0.669728 2.67891-50.229565 5.441536-100.375414 8.120446-150.604979V276.346322c2.762626-2.762626 5.525252-5.608968 8.287878-8.371594 5.525252 5.608968 11.13422 11.217936 16.659473 16.826904 0.167432 2.595194 0.251148 5.106672 0.334863 7.701867z" fill="#90B0D9" p-id="4686"></path><path d="M788.901283 284.885348L772.24181 267.974728c-2.762626-11.13422-5.608968-22.26844-8.371594-33.486376 3.599785-9.292469 7.283287-18.584939 12.557391-32.146922 24.528771-8.790174 44.118301 2.26033 54.415362 32.146922-13.980562 16.743188-27.961124 33.570092-41.941686 50.396996z" fill="#87BFED" p-id="4687"></path><path d="M880.988818 309.581551H897.815722c8.371594 47.299507 17.831496 94.431582 24.277623 142.065953 1.841751 13.729414-4.688093 28.630852-7.450719 43.029993-6.446127-8.371594-12.892255-16.826904-19.338382-25.198498 3.599785-10.883072 11.5528-22.519588 9.962197-32.565501-6.446127-42.778846-15.906029-84.97168-24.277623-127.331947z" fill="#78A2CD" p-id="4688"></path><path d="M998.944579 351.439522c10.883072 2.930058 21.849861 5.860116 32.732933 8.706458-5.274104 19.422098-10.548209 38.844197-15.822312 58.350011-14.147994-8.287878-28.295988-16.49204-42.443983-24.779919l16.157177-0.753443c3.09749-13.896846 6.278696-27.709977 9.376185-41.523107z" fill="#B286AA" p-id="4689"></path><path d="M989.568394 392.962629l-16.157177 0.753443c-0.083716-8.287878-0.083716-16.49204-0.167432-24.779918l0.753444-25.282215c5.190388 16.408325 10.380777 32.816649 15.571165 49.30869z" fill="#80B1E1" p-id="4690"></path><path d="M948.966162 208.95499l2.260331 9.292469c-4.855525-1.925467-9.794765-3.767217-14.65029-5.608968 2.344046-2.344046 4.688093-4.771809 7.032139-7.115855 1.758035 1.088307 3.599785 2.26033 5.35782 3.432354z" fill="#616874" p-id="4691"></path><path d="M822.471375 142.3171c-0.669728 13.143403-1.423171 26.20309-2.511478 47.634371-68.144776-55.168805-132.103755-8.03673-195.727871-9.543617-64.712423-1.506887-129.675993 8.622742-194.639564 11.050504-9.292469 0.334864-19.087235-14.23171-28.630852-21.849861 5.274104-4.771809 10.548209-9.459901 15.822313-14.147994 12.808539 1.339455 25.617078 2.595194 38.509333 3.934649 42.192834-6.19498 84.218237-13.645698 126.578504-18.166359 25.533362-2.762626 51.652736 0.753443 77.269813-1.841751 38.927913-4.018365 79.865008-4.771809 115.611715-18.333791 30.305171-11.720232 35.662991 6.027548 47.718087 21.263849z" fill="#9BCAF3" p-id="4692"></path><path d="M955.998301 685.717276c5.860116-13.143403 11.636516-26.286806 17.496632-39.346493 24.947351 17.161768 36.081571 61.698649 14.817722 92.00382-19.58953 27.961124-48.722678 49.141258-73.670029 73.335164-6.027548 2.344046-12.138811 4.604377-18.166359 6.948423-2.595194 0.41858-5.106672-0.083716-7.283287-1.506887 5.608968-20.761553 11.301652-41.606823 16.91062-62.368376 35.746707-9.208754 43.364858-38.760481 49.894701-69.065651z" fill="#F3EEEE" p-id="4693"></path><path d="M1005.390707 555.204123c0.586012-3.767217 1.088307-7.450719 1.674319-11.217936 2.595194-5.441536 5.190388-10.883072 7.785582-16.408325l0.334864-0.502295c2.427762-6.19498 4.855525-12.306243 7.283287-18.501223-0.251148-1.925467 0-3.850933 0.753443-5.692684l7.534435-35.411844c0-2.427762 0.334864-4.855525 0.837159-7.283286 3.432354 3.934649 6.864707 7.953014 10.297061 11.887663-0.083716 12.138811-0.167432 24.361339-0.334863 36.583867-2.762626 9.878481-5.525252 19.756962-8.204163 29.635443l-1.506887 22.854452c-0.167432 2.26033-0.251148 4.520661-0.334863 6.780991-5.35782 0.41858-10.71564 0.837159-16.157177 1.339455l-8.790174-8.790174c-0.669728-1.674319-1.004591-3.432354-1.172023-5.274104z" fill="#C785AD" p-id="4694"></path><path d="M1033.268115 538.293503c2.762626-9.878481 5.525252-19.756962 8.204163-29.551727 2.176614 0.837159 4.436945 1.506887 6.780991 1.84175 0.41858 8.87389 0.753443 17.664064 1.172023 26.537954-3.09749 32.984081-6.111264 65.884446-9.208754 98.868526-2.930058-22.68702-5.860116-45.290324-8.873889-67.977344 0.083716-2.26033 0.251148-4.520661 0.334863-6.780991 0.586012-7.701867 1.088307-15.320017 1.590603-22.938168zM1006.479014 560.478227l8.790174 8.790174-8.790174-8.790174z" fill="#BB7EA2" p-id="4695"></path><path d="M1080.986202 486.557051c-10.297061-22.435872-20.510406-44.871745-30.807467-67.307617l6.529844-8.03673 26.119374 48.973826v24.696202l-1.841751 1.674319z" fill="#90B0D9" p-id="4696"></path><path d="M1023.222202 502.965376c-0.753443 1.841751-1.004591 3.683501-0.753443 5.692684-2.427762 6.19498-4.855525 12.306243-7.283287 18.501223l-0.334864 0.502295c-2.511478-0.083716-5.022956-0.502296-7.450719-1.172023l8.036731-73.753744c3.013774 5.7764 5.943832 11.469084 8.957606 17.245484-0.502296 10.966788-0.837159 22.017293-1.172024 32.984081z" fill="#87BDEA" p-id="4697"></path><path d="M1024.31051 469.897579c-3.013774-5.7764-5.943832-11.469084-8.957606-17.245484 2.930058-6.697275 5.860116-13.478267 13.645698-31.477194 1.339455 21.347565 1.925467 30.221455 2.511479 39.095345-0.502296 2.427762-0.837159 4.855525-0.83716 7.283286-2.092899 0.837159-4.185797 1.590603-6.362411 2.344047z" fill="#78A2CD" p-id="4698"></path><path d="M1048.336985 510.583526a27.123965 27.123965 0 0 1-6.780991-1.84175c0.083716-12.222527 0.167432-24.361339 0.334863-36.583867l7.032139 30.388887c-0.753443 2.595194-0.920875 5.274104-0.586011 8.03673z" fill="#616874" p-id="4699"></path><path d="M1048.336985 510.583526c-0.251148-2.67891-0.083716-5.35782 0.586011-8.03673 2.67891 11.217936 5.274104 22.352156 7.953015 33.570092-2.511478 0.083716-4.939241 0.334864-7.367003 0.920876-0.41858-8.790174-0.837159-17.664064-1.172023-26.454238z" fill="#B286AA" p-id="4700"></path><path d="M1056.708579 411.212704l-6.529844 8.03673c-2.009183-5.190388-4.353229-10.297061-5.692684-15.738597-0.251148-0.920875 3.850933-2.846342 5.943832-4.353229l6.278696 12.055096z" fill="#C785AD" p-id="4701"></path><path d="M1098.14797 502.965376c-0.083716 2.511478-0.586012 5.022956-1.339455 7.450718-5.274104-7.953014-10.548209-15.906029-15.738597-23.859043l1.758035-1.590603c2.176614 0.753443 4.353229 1.339455 6.613559 1.841751 2.846342 5.35782 5.7764 10.799356 8.706458 16.157177z" fill="#90B0D9" p-id="4702"></path><path d="M1089.357796 486.808199c-2.26033-0.502296-4.436945-1.088307-6.613559-1.841751v-24.696202c2.595194 2.67891 5.106672 5.35782 7.61815 8.03673 0 3.09749 0.083716 6.111264 0.083716 9.208753-0.251148 3.013774-0.669728 6.111264-1.088307 9.29247z" fill="#DDE5F3" p-id="4703"></path><path d="M1007.316173 526.489555c2.427762 0.753443 4.939241 1.088307 7.450719 1.172023-2.595194 5.441536-5.190388 10.883072-7.785582 16.408325l-0.502296-0.251148c0.167432-2.511478 0.083716-5.022956-0.083716-7.534435 0.334864-3.348638 0.669728-6.529843 0.920875-9.794765z" fill="#B286AA" p-id="4704"></path><path d="M1006.479014 536.200604c0.167432 2.511478 0.251148 5.022956 0.083716 7.534435-1.088307-1.841751-2.344046-3.599785-3.264922-5.525252-0.083716-0.083716 2.092899-1.255739 3.181206-2.009183z" fill="#C785AD" p-id="4705"></path><path d="M906.019884 754.699211c-5.608968 20.761553-11.301652 41.606823-16.91062 62.368377l-1.255739 11.971379c-2.092899 3.181206-4.185797 6.362412-6.278695 9.459902l-9.208754 14.23171c-2.67891 7.450719-5.274104 14.901438-7.953014 22.435872-43.029994-14.315426-67.307617 23.356748-100.542846 36.249002-57.094272 31.728342-115.695431 36.332719-175.887193 9.376186l0.334864 0.334864c-0.251148-2.595194-0.41858-5.274104-0.502296-7.869299-8.120446-3.013774-16.324609-6.027548-24.445054-9.041322C521.345134 873.492132 479.319731 842.852097 437.378045 812.212063c-1.506887-10.129629-2.930058-20.175542-3.09749-21.598713 25.282214-8.204162 50.145849-9.376185 64.461275-22.352156 23.021884-20.845269 13.980562-46.797211-2.846342-71.15855-5.106672-7.367003 0.083716-21.933577 0.586011-33.151513l29.802876-30.305171c0.251148-2.344046 0.669728-4.688093 1.255739-6.948423 3.599785-7.869298 7.199571-15.822313 10.799356-23.691611 8.706458-7.032139 17.412916-14.064278 25.114782-20.259258l24.779919 53.075907c13.980562 9.878481 32.649217 31.058614 41.188243 27.62626 31.393478-12.808539 80.116156 8.120446 92.673547-43.532289 14.315426-22.854452 28.547136-45.625188 42.862562-68.47964 8.790174 8.371594 17.580348 16.826904 26.370522 25.198498-0.586012 5.525252-1.255739 10.966788-1.841751 16.49204L787.226964 619.581682c-2.344046 6.697275-8.706458 15.654881-6.446128 19.58953 9.543617 16.240893 21.682429 30.974898 35.411843 49.643553-1.506887 5.106672-8.45531 19.254667-9.627333 33.904957-1.758035 22.352156 6.613559 36.165287 32.146922 22.603304 5.7764-0.167432 11.469084-0.41858 17.245484-0.586012-2.762626 34.156104 19.170951 18.333791 34.072388 16.91062 5.190388-2.344046 10.631925-4.688093 15.989744-6.948423z" fill="#FCF9F5" p-id="4706"></path><path d="M496.314068 664.034847c-0.502296 11.217936-5.692684 25.78451-0.586012 33.151513 16.91062 24.277623 25.868226 50.313281 2.846342 71.15855-14.23171 12.892255-39.095345 14.147994-64.461275 22.352156 0.251148 1.339455 1.758035 11.385368 3.264922 21.514997-5.608968-0.502296-11.217936-1.088307-16.743188-1.590603-4.269513-15.571165-8.539026-31.14233-10.548209-38.509333 11.803948-18.501223 19.673246-30.807466 27.542545-43.197426 0.502296-6.111264 1.004591-12.306243 1.674318-20.259258 6.446127 5.106672 10.631925 8.371594 14.734006 11.636516 1.255739 1.088307 2.511478 2.092899 3.767217 3.181206-1.004591-1.255739-2.092899-2.511478-3.097489-3.767217 0-22.435872-0.083716-44.788029-0.083716-67.223901l26.789101 1.506887c2.26033 0.41858 4.436945 1.088307 6.529843 2.092898 2.595194 2.67891 5.525252 5.274104 8.371595 7.953015z" fill="#F3EEEE" p-id="4707"></path><path d="M336.332904 276.346322C367.391518 270.904786 398.533848 265.379534 429.592462 259.937998 418.960538 312.093029 404.226532 363.829481 399.371007 416.570524c-3.09749 33.235229-22.184724 72.163141 12.724824 101.966017 0.083716 3.09749 0.251148 6.19498 0.334863 9.376185 5.441536 30.640035 10.966788 61.196353 16.408325 91.836388l-83.632226 59.019738-10.966788-20.426689c-5.106672 7.534435-8.87389 13.227119-12.724823 18.919802-0.502296-2.595194-1.004591-5.106672-1.590603-7.701866-11.050504-66.889037-28.714568-133.526926-31.058614-200.667112-1.841751-52.406179 15.152585-105.482086 23.775327-158.306845 2.511478-2.762626 5.022956-5.525252 7.534435-8.204162 5.35782-8.706458 10.799356-17.412916 16.157177-26.035658z" fill="#8AC2EF" p-id="4708"></path><path d="M891.788174 167.683031c-9.208754-5.692684-18.417507-11.385368-27.62626-17.161768 8.539026-2.595194 17.078052-5.106672 25.617078-7.618151 0.753443 8.204162 1.423171 16.49204 2.009182 24.779919zM855.957752 151.023558l-6.529844 12.808539c-3.432354-4.269513-6.864707-8.622742-10.297061-12.892255 5.692684 0.083716 11.217936 0.083716 16.826905 0.083716z" fill="#9BCAF3" p-id="4709"></path><path d="M587.815591 913.257204c0.083716 2.595194 0.251148 5.274104 0.502296 7.869299l-0.502296-7.869299z" fill="#FBBEBD" p-id="4710"></path><path d="M989.568394 392.962629c-5.190388-16.408325-10.380777-32.900365-15.571165-49.30869 3.013774-7.618151 6.027548-15.320017 9.041322-23.021884 5.35782 10.213345 10.631925 20.510406 15.989744 30.723751-3.181206 13.896846-6.362412 27.709977-9.459901 41.606823z" fill="#78A2CD" p-id="4711"></path><path d="M764.707375 73.586312c8.03673 0.502296 16.157177 1.088307 24.193908 1.590603-8.03673-0.502296-16.157177-1.004591-24.193908-1.590603z" fill="#FCF9F5" p-id="4712"></path><path d="M948.966162 208.95499c-1.758035-1.172023-3.51607-2.344046-5.35782-3.432354-3.850933-8.287878-7.701867-16.659472-16.91062-36.416434 16.073461 12.641107 22.603304 17.74778 29.133148 22.938167 0 2.595194 0.502296 5.190388 1.423171 7.701867-2.762626 3.013774-5.525252 6.111264-8.287879 9.208754z" fill="#DDE5F3" p-id="4713"></path><path d="M887.853525 829.038967l1.255739-11.971379c2.26033 1.423171 4.688093 1.925467 7.367003 1.506886-2.092899 6.362412-4.102081 12.808539-6.19498 19.170951l-1.255739-1.004591c0.251148-2.67891-0.083716-5.274104-1.172023-7.701867z" fill="#80B1E1" p-id="4714"></path><path d="M1089.357796 486.808199c0.41858-3.09749 0.753443-6.278696 1.172023-9.376186l7.534435 25.533363c-2.846342-5.35782-5.7764-10.799356-8.706458-16.157177z" fill="#FCFCFD" p-id="4715"></path><path d="M887.853525 829.038967c1.088307 2.427762 1.423171 5.022956 1.088307 7.701867-2.511478 0.502296-4.939241 1.088307-7.367002 1.84175l6.278695-9.543617z" fill="#F3EEEE" p-id="4716"></path><path d="M319.924579 669.476383c0.502296 2.595194 1.004591 5.106672 1.590603 7.701867 3.767217-5.692684 7.618151-11.301652 12.724823-18.919803l10.966788 20.426689c0.251148 7.953014 0.586012 15.906029 0.83716 23.859044l-2.092899 1.758035c-5.106672 2.427762-10.213345 4.771809-15.236301 7.199571l-1.255739 1.088307-15.320017-16.826904c2.67891-8.790174 5.190388-17.580348 7.785582-26.286806z" fill="#A2B5CC" p-id="4717"></path><path d="M346.043953 702.627896c-0.251148-7.953014-0.586012-15.906029-0.83716-23.859044l83.632226-59.019738c8.87389-1.925467 17.74778-3.934649 26.621669-5.860116l-2.26033 15.068869c0.41858 8.03673 0.920875 16.157177 1.339455 24.193907l-0.251148-0.586011c0 22.435872 0.083716 44.788029 0.083716 67.223901l-0.586012 0.586011c-4.102081-3.264922-8.287878-6.529843-14.734005-11.636516-0.669728 7.953014-1.172023 14.064278-1.674319 20.259258-13.896846 5.441536-27.793693 10.883072-41.690539 16.240893-16.49204-14.23171-33.067797-28.46342-49.643553-42.611414z" fill="#CDD1DF" p-id="4718"></path><path d="M346.043953 702.627896c16.575756 14.23171 33.151513 28.46342 49.727269 42.611414-8.120446 2.511478-16.324609 5.022956-24.528771 7.534435-5.943832-5.35782-11.803948-10.71564-17.747779-16.157177l0.167431 0.251148-9.794765-32.565501 2.176615-1.674319z" fill="#A2B5CC" p-id="4719"></path><path d="M354.080683 753.443472c-6.362412-7.785583-12.808539-15.487449-19.17095-23.273032l3.181205-2.67891c5.190388 3.09749 10.464493 6.278696 15.654881 9.376186l-0.167431-0.251148 0.502295 16.826904z" fill="#A2B5CC" p-id="4720"></path><path d="M354.080683 753.443472l-0.502295-16.743188c5.943832 5.35782 11.803948 10.71564 17.747779 16.157177-5.7764 0.167432-11.5528 0.334864-17.245484 0.586011z" fill="#DDE5F3" p-id="4721"></path><path d="M334.826017 730.17044c-2.427762-5.860116-4.855525-11.720232-7.367003-17.580347l1.172023-1.004592c3.09749 5.274104 6.278696 10.631925 9.376185 15.906029l-3.181205 2.67891z" fill="#A2B5CC" p-id="4722"></path><path d="M763.870216 234.572068c2.762626 11.13422 5.608968 22.26844 8.371594 33.486376-2.762626 2.762626-5.525252 5.608968-8.287878 8.371594C749.97337 276.346322 735.992808 276.346322 722.012245 276.346322h-58.601159C635.366246 269.983911 607.321406 263.537783 576.430223 256.505644v35.579275c-17.998927-2.846342-32.565501-5.106672-47.048359-7.367002-2.762626 0-5.525252 0-8.287878 0.083715L453.786369 251.147824c0.083716-5.608968 0.251148-11.217936 0.334864-16.826904l-0.167432 0.251148c2.595194-0.251148 5.190388-0.334864 7.785583-0.334864 79.865008-5.525252 159.730016-12.389959 239.67874-15.487449C722.012245 217.912595 743.024947 228.9631 763.870216 234.572068z" fill="#8AC2EF" p-id="4723"></path><path d="M454.204949 234.32092c-0.167432 5.608968-0.251148 11.217936-0.41858 16.826904-2.846342 8.371594-5.608968 16.659472-8.45531 25.031067-11.13422 80.785883-22.184724 161.571767-33.318944 242.35765-34.825832-29.886591-15.738597-68.730788-12.724824-101.966017C404.226532 363.829481 418.960538 312.093029 429.592462 259.854282 437.796625 251.398972 446.000787 242.859946 454.204949 234.32092z" fill="#78A2CD" p-id="4724"></path><path d="M461.739384 234.237204c-2.595194 0-5.190388 0.083716-7.701867 0.334864 1.255739-3.599785 2.595194-7.199571 3.934649-10.799357 1.255739 3.51607 2.511478 6.948423 3.767218 10.464493z" fill="#78A2CD" p-id="4725"></path><path d="M880.988818 309.581551c8.371594 42.360266 17.831496 84.553101 24.445055 127.164515 1.590603 10.129629-6.362412 21.682429-9.962197 32.565501-21.682429-30.221455-43.448574-60.44291-65.131003-90.664364 16.91062-23.021884 33.737524-46.043768 50.648145-69.065652z" fill="#87BDEA" p-id="4726"></path><path d="M764.874807 551.436906c-14.315426 22.854452-28.547136 45.625188-42.862562 68.47964-5.608968-8.45531-11.217936-16.994336-16.743188-25.449646l8.287878-41.690539c0.083716-8.371594 0.083716-16.826904 0.167432-25.198499 8.371594-2.762626 16.659472-5.608968 25.031067-8.371594 2.511478 0 4.939241-0.083716 7.450718-0.083716 3.264922-5.441536 6.446127-10.966788 9.71105-16.408324 5.106672-0.251148 10.297061-0.41858 15.403733-0.669728l1.506887 27.291397c-2.762626 7.283287-5.35782 14.734006-7.953015 22.101009z" fill="#AAC2DE" p-id="4727"></path><path d="M764.874807 551.436906c2.595194-7.367003 5.274104-14.817722 7.869299-22.184725 39.513924-9.041322 74.507188-3.181206 100.961425 30.640035L872.70094 577.388847c-3.09749 16.157177-6.19498 32.398069-9.376186 48.555246-2.009183 1.255739-4.102081 1.423171-6.278695 0.586012-3.181206-12.055096-6.362412-24.110191-9.459902-36.081571-8.45531-46.880927-32.565501-29.719159-56.340828-13.81313-8.790174-8.371594-17.580348-16.826904-26.370522-25.198498z" fill="#5C4B4D" p-id="4728"></path><path d="M872.70094 577.388847l1.004591-17.496631c5.106672 11.5528 10.213345 23.189316 15.320017 34.742115l0.586012-0.586011c-2.846342 0.753443-5.525252 0.251148-7.869299-1.506887-3.013774-5.022956-6.027548-10.129629-9.041321-15.152586z" fill="#616874" p-id="4729"></path><path d="M881.658546 592.541433c2.344046 1.758035 5.022956 2.26033 7.869298 1.506887l1.255739 25.198498-9.543617 58.768591-42.69513 67.307617c-25.533362 13.478267-33.904956-0.334864-32.146922-22.603304 1.172023-14.65029 8.120446-28.798284 9.627334-33.904957-13.729414-18.668655-25.868226-33.402661-35.411844-49.643553-2.26033-3.934649 4.102081-12.892255 6.446128-19.58953 8.622742 37.75589 17.078052-6.780991 25.617078-0.083716 2.930058 0.586012 5.860116 1.255739 8.790174 1.841751 11.887664 1.758035 23.691611 3.51607 35.579275 5.190388 2.176614 0.837159 4.269513 0.669728 6.278695-0.586012l18.333792-33.40266z" fill="#F3EEEE" p-id="4730"></path><path d="M838.628552 745.323026l42.69513-67.307617L948.129003 686.554435c2.67891 0.083716 5.274104-0.167432 7.869298-0.837159-6.446127 30.388887-14.147994 59.856898-49.978417 68.981935-5.35782 2.344046-10.71564 4.604377-16.07346 6.948423-14.399142-28.714568-17.496632-30.305171-34.072388-16.91062-5.7764 0.167432-11.469084 0.334864-17.245484 0.586012z" fill="#CDD1DF" p-id="4731"></path><path d="M948.129003 686.554435l-66.805321-8.539026 9.543617-58.768591c28.965716 14.064278 70.73997 17.078052 57.261704 67.307617z" fill="#AAC2DE" p-id="4732"></path><path d="M722.012245 276.346322c13.980562 0 27.961124 0 41.941687 0.083716v75.679211c-5.608968 38.927913-11.301652 77.855825-16.91062 116.783738-5.525252 5.608968-11.050504 11.13422-16.659472 16.743189h-25.114783c-28.714568-11.385368-57.512852-22.68702-92.087535-36.416435V368.433858c7.199571-1.590603 14.399142-3.264922 22.938168-5.190388-11.385368-15.487449-20.761553-28.128556-34.156105-46.378632-14.901438 13.143403-28.295988 27.458829-44.118301 38.258185-10.380777 7.032139-24.277623 9.041322-36.667582 13.227119l8.287878-58.601159c11.97138-1.172023 24.445055-0.586012 35.830423-3.767217C598.280084 296.940444 630.761869 286.392235 663.411086 276.346322h58.601159z" fill="#81BEF0" p-id="4733"></path><path d="M746.959596 468.892987c5.608968-38.927913 11.301652-77.855825 16.91062-116.783738-2.67891 50.229565-5.441536 100.375414-8.120446 150.604979-3.264922 5.525252-6.446127 10.966788-9.711049 16.408324 0.334864-11.13422 0.586012-22.352156 0.920875-33.486376 0.083716-5.608968 0.083716-11.13422 0-16.743189z" fill="#78A2CD" p-id="4734"></path><path d="M1024.31051 469.897579c2.176614-0.753443 4.353229-1.506887 6.446127-2.344047l-7.534435 35.411844c0.334864-10.966788 0.669728-22.017293 1.088308-33.067797z" fill="#B286AA" p-id="4735"></path><path d="M1033.268115 538.293503L1031.761228 561.147955l1.506887-22.854452z" fill="#616874" p-id="4736"></path><path d="M1015.101756 527.159283c2.427762-6.19498 4.855525-12.306243 7.283287-18.501223-2.427762 6.19498-4.855525 12.389959-7.283287 18.501223z" fill="#B286AA" p-id="4737"></path><path d="M705.269057 594.4669c5.608968 8.45531 11.217936 16.994336 16.743188 25.449646-12.557391 51.652736-61.363785 30.72375-92.673547 43.532289-8.539026 3.51607-27.207681-17.74778-41.188243-27.542545 0.251148-10.71564 0.41858-21.431281 0.669728-32.230637 38.760481-3.09749 77.604678-6.111264 116.448874-9.208753z" fill="#DDE5F3" p-id="4738"></path><path d="M588.736467 603.675653c-0.251148 10.71564-0.41858 21.431281-0.669728 32.230637l-24.779918-53.075906c-7.701867 6.19498-16.408325 13.227119-25.114783 20.259257l-0.502295-15.738597c2.930058-6.278696 5.943832-12.641107 8.873889-18.919802 31.226046-0.920875 6.278696-16.073461 6.362412-24.947351 8.622742-7.701867 17.3292-15.403733 25.951942-23.189316l0.753443 40.85338c3.013774 14.23171 6.111264 28.379704 9.125038 42.527698z" fill="#CDD1DF" p-id="4739"></path><path d="M487.691326 656.081832c-2.092899-0.920875-4.269513-1.674319-6.529844-2.092898-0.837159-19.087235-1.674319-38.258185-2.595194-57.429136 5.860116-0.753443 11.636516-1.506887 17.412916-2.344046 7.032139 7.534435 13.980562 15.152585 21.012701 22.68702 3.432354 3.264922 6.948423 6.529843 10.380777 9.794765-0.669728 2.26033-1.088307 4.604377-1.255739 6.948423-20.259258-5.274104-38.676765-7.367003-38.425617 22.435872z" fill="#37A2E6" p-id="4740"></path><path d="M791.245329 576.635404c23.775327-15.906029 47.969234-33.067797 56.340828 13.81313-5.860116-2.344046-11.803948-4.604377-17.664063-6.948423-10.799356 2.595194-21.682429 5.106672-32.481785 7.701867-2.67891 0.669728-5.441536 1.255739-8.120447 1.925466 0.669728-5.525252 1.339455-10.966788 1.925467-16.49204z" fill="#616874" p-id="4741"></path><path d="M487.691326 656.081832c-0.167432-29.802875 18.166359-27.793693 38.425617-22.352156-9.962197 10.045913-19.840678 20.175542-29.802875 30.305171-2.846342-2.67891-5.7764-5.274104-8.622742-7.953015z" fill="#9BCAF3" p-id="4742"></path><path d="M855.874036 744.737014c16.49204-13.394551 19.673246-11.887664 34.072388 16.91062-14.901438 1.423171-36.91873 17.245484-34.072388-16.91062z" fill="#F3EEEE" p-id="4743"></path><path d="M789.403578 593.127444c2.67891-0.669728 5.441536-1.255739 8.120446-1.925466 5.274104 1.004591 10.548209 2.009183 15.906029 3.013774 0.083716 6.613559 0.167432 13.310835 0.334864 19.924394-0.41858 1.758035-0.753443 3.51607-0.920875 5.274104-8.539026-6.697275-16.994336 37.839605-25.617078 0.083716 0.669728-8.706458 1.423171-17.580348 2.176614-26.370522z" fill="#37A2E6" p-id="4744"></path><path d="M527.372682 626.781253c-3.432354-3.264922-6.948423-6.529843-10.380777-9.711049l1.172023-3.264922c0.753443-3.09749 1.423171-6.19498 2.176615-9.376185l17.3292-17.078053 0.502295 15.738597c-3.599785 7.869298-7.199571 15.822313-10.799356 23.691612z" fill="#A5CFF3" p-id="4745"></path><path d="M478.566288 596.643514c0.837159 19.087235 1.674319 38.258185 2.595194 57.34542l-26.789101-1.506887 0.251148 0.586011c-0.502296-7.953014-0.920875-16.073461-1.423171-24.110191l2.26033-15.068869c-8.87389 1.925467-17.74778 3.934649-26.621669 5.860116-5.441536-30.640035-10.966788-61.196353-16.408325-91.836388 23.607895 3.683501 47.132075 7.450719 68.061061 10.715641 9.208754-47.383223 16.240893-83.967089 23.356747-120.46724 3.013774 0.251148 6.027548 0.41858 8.957606 0.586012 5.608968 41.774255 11.217936 83.548509 16.91062 125.322764-0.083716 5.692684-0.251148 11.385368-0.334864 17.078052-5.525252 2.427762-10.966788 4.855525-16.49204 7.283287-21.766145-13.729414-31.058614-3.264922-34.825832 17.915211l0.502296 10.297061z" fill="#A2B5CC" p-id="4746"></path><path d="M454.456097 719.789664c1.004591 1.255739 2.092899 2.511478 3.09749 3.767217-1.255739-1.088307-2.511478-2.092899-3.767218-3.181206 0.083716 0 0.669728-0.586012 0.669728-0.586011z" fill="#CDD1DF" p-id="4747"></path><path d="M503.764786 418.077411c-7.115855 36.583866-14.147994 73.084017-23.356747 120.46724-20.845269-3.264922-44.453165-7.032139-68.061061-10.715641l-0.251147-9.292469c11.13422-80.785883 22.184724-161.571767 33.318944-242.35765C467.766932 290.159453 490.202804 304.223731 512.638676 318.204293c-2.930058 33.318945-5.860116 66.554173-8.87389 99.873118z" fill="#85BDED" p-id="4748"></path><path d="M338.090938 727.49153c-3.09749-5.274104-6.278696-10.631925-9.376185-15.906029 5.106672-2.427762 10.213345-4.855525 15.236301-7.199571l9.794765 32.565502c-5.190388-3.181206-10.464493-6.278696-15.654881-9.459902z" fill="#DDE5F3" p-id="4749"></path><path d="M453.200358 628.957867c0.41858 8.03673 0.920875 16.157177 1.339455 24.193907-0.41858-8.03673-0.837159-16.157177-1.339455-24.193907z" fill="#F3EEEE" p-id="4750"></path><path d="M663.411086 276.346322c-32.649217 10.045913-65.131002 20.594122-98.031367 29.71916-11.385368 3.181206-23.859043 2.595194-35.830423 3.767217-0.083716-8.371594-0.083716-16.743188-0.167432-25.114782 14.482858 2.26033 28.965716 4.520661 46.964643 7.367002V256.505644C607.321406 263.621499 635.366246 269.983911 663.411086 276.346322zM512.638676 318.204293c-22.435872-13.980562-44.871745-28.04484-67.307617-42.025402 2.846342-8.371594 5.608968-16.659472 8.45531-25.031067L521.093986 284.801632c-2.762626 11.13422-5.608968 22.26844-8.45531 33.402661z" fill="#87BFED" p-id="4751"></path><path d="M512.638676 318.204293c2.846342-11.13422 5.608968-22.26844 8.45531-33.402661 2.762626-0.083716 5.525252-0.083716 8.287878-0.083715 0 8.371594 0.083716 16.743188 0.083716 25.114782l-8.287878 58.601159c-2.846342 16.743188-5.608968 33.486377-8.45531 50.313281-3.013774-0.167432-6.027548-0.41858-8.957606-0.586012 3.013774-33.402661 5.943832-66.637889 8.87389-99.956834z" fill="#80B1E1" p-id="4752"></path><path d="M722.012245 276.346322h-16.743188 16.743188z" fill="#87BFED" p-id="4753"></path><path d="M588.736467 603.675653c-3.013774-14.147994-6.111264-28.379704-9.125038-42.527698L596.438333 544.321051l24.947351 0.251147c5.274104 4.269513 10.464493 12.222527 15.654881 12.138812 25.449646-0.167432 50.983008-2.427762 76.432654-3.934649-2.67891 13.896846-5.441536 27.793693-8.204162 41.690539-38.844197 3.09749-77.688394 6.111264-116.53259 9.208753z" fill="#BAD4F2" p-id="4754"></path><path d="M621.4694 544.488483c-8.371594-0.083716-16.659472-0.083716-25.031067-0.167432 0-8.45531-0.083716-16.91062-0.083716-25.365931 0-5.525252-0.083716-11.050504-0.083716-16.659472 8.45531-2.762626 16.91062-5.441536 25.282215-8.204162h16.659472l100.45913 25.114782c-8.371594 2.762626-16.659472 5.608968-25.031067 8.371594-30.72375 5.608968-61.447501 11.301652-92.171251 16.910621z" fill="#9BCAF3" p-id="4755"></path><path d="M621.4694 544.488483c30.72375-5.608968 61.531217-11.301652 92.254967-16.910621-0.083716 8.371594-0.083716 16.826904-0.167432 25.198499-25.449646 1.506887-50.899292 3.767217-76.432654 3.934649-5.190388 0-10.464493-7.953014-15.654881-12.222527z" fill="#A5CFF3" p-id="4756"></path><path d="M738.671718 519.206268l-100.45913-25.114782L705.269057 485.55246h41.774255c-0.334864 11.13422-0.586012 22.352156-0.920876 33.486376-2.511478 0.167432-4.939241 0.167432-7.450718 0.167432z" fill="#8AC2EF" p-id="4757"></path><path d="M830.00581 583.500111c5.860116 2.344046 11.803948 4.604377 17.664063 6.948423 3.181206 12.055096 6.278696 24.110191 9.459902 36.081571-11.887664-1.758035-23.691611-3.51607-35.579275-5.190388 0.920875-1.925467 1.339455-3.934649 1.172023-6.111264 1.758035-6.529843 3.432354-13.059687 5.190388-19.58953 0.669728-4.102081 1.339455-8.120446 2.092899-12.138812z" fill="#37A2E6" p-id="4758"></path><path d="M881.658546 592.541433l-18.333792 33.40266c3.09749-16.157177 6.19498-32.398069 9.376186-48.555246 3.013774 5.022956 6.027548 10.129629 8.957606 15.152586z" fill="#CC98B2" p-id="4759"></path><path d="M822.722523 615.228453c0.167432 2.176614-0.251148 4.185797-1.172023 6.111264-2.930058-0.586012-5.860116-1.255739-8.790174-1.841751 0.167432-1.758035 0.502296-3.51607 0.920875-5.274104l9.041322 1.004591z" fill="#6172AA" p-id="4760"></path><path d="M705.269057 485.636176l-67.056469 8.539026H621.553116l-26.119374-22.854452c-2.595194 1.423171-5.106672 2.846342-7.701867 4.269513 2.846342 8.87389 5.692684 17.831496 8.539026 26.705385 0 5.525252 0.083716 11.050504 0.083716 16.659472-5.860116 0.502296-11.720232 0.920875-17.496631 1.423171-8.622742 7.701867-17.3292 15.403733-25.951942 23.189316-2.092899 0.41858-4.185797 0.669728-6.278696 0.669728-5.608968-0.083716-11.301652-0.083716-16.91062-0.167432-5.608968-41.774255-11.217936-83.548509-16.91062-125.322764 2.846342-16.743188 5.608968-33.486377 8.45531-50.313281 12.306243-4.269513 26.20309-6.19498 36.667582-13.227119 15.822313-10.799356 29.300579-25.114782 44.118301-38.258185 13.394551 18.166359 22.770736 30.891182 34.156105 46.378631-8.622742 1.841751-15.822313 3.51607-23.021884 5.106673-1.172023-0.669728-2.344046-1.255739-3.432354-1.925467 1.172023 0.669728 2.26033 1.255739 3.432354 1.925467v80.785883c34.6584 13.729414 63.372968 25.031066 92.087535 36.416435z m-119.462648-34.156104c4.771809-1.423171 9.543617-2.762626 14.315426-4.185797-3.683501-22.770736-7.283287-45.625188-10.966789-68.395924-4.939241 1.004591-9.794765 1.925467-14.734005 2.930057 3.850933 23.189316 7.618151 46.378632 11.385368 69.651664z m-24.612487-6.027548c-1.841751 0.083716-3.767217 0.083716-5.608968 0.167432-0.920875 19.338382-1.925467 38.676765-2.846342 57.931431 2.846342 0.083716 5.692684 0.083716 8.539026 0.167432-0.083716-19.422098-0.083716-38.844197-0.083716-58.266295zM747.043312 485.636176H730.38384c5.525252-5.608968 11.050504-11.13422 16.659472-16.743189v16.743189z" fill="#87BFED" p-id="4761"></path><path d="M512.889824 568.347526c5.525252-2.427762 10.966788-4.855525 16.49204-7.283287 5.7764 2.595194 11.636516 5.274104 17.412916 7.869298l-0.167432-0.502295c-2.930058 6.278696-5.943832 12.557391-8.87389 18.919802l-17.329199 17.078053a28.547136 28.547136 0 0 0-4.604377-1.172024c-1.004591-2.930058-1.925467-5.7764-2.930058-8.706458 0.334864-5.441536 0.586012-10.883072 0.920875-16.324608-0.334864-3.264922-0.586012-6.529843-0.920875-9.878481z" fill="#90B0D9" p-id="4762"></path><path d="M578.857986 520.378291c5.860116-0.502296 11.720232-0.920875 17.496631-1.423171 0.083716 8.45531 0.083716 16.91062 0.083716 25.365931-5.608968 5.608968-11.217936 11.217936-16.826904 16.91062l-0.753443-40.85338z" fill="#A5CFF3" p-id="4763"></path><path d="M546.627348 544.237335c2.092899 0 4.269513-0.167432 6.278696-0.669728-0.083716 8.790174 24.947351 24.026475-6.362412 24.947351l0.167432 0.502295c0-8.287878-0.083716-16.575756-0.083716-24.779918z" fill="#616874" p-id="4764"></path><path d="M512.889824 594.550615c1.004591 2.930058 1.925467 5.7764 2.846342 8.622742 0.837159 3.51607 1.674319 7.032139 2.427762 10.548209l-1.172023 3.264922c-7.032139-7.618151-13.980562-15.152585-21.012701-22.68702l16.91062 0.251147z" fill="#5C4B4D" p-id="4765"></path><path d="M512.889824 594.550615l-16.826904-0.251147c-5.7764 0.753443-11.636516 1.506887-17.412916 2.344046l-0.502296-10.380777c11.887664-2.67891 23.775327-5.35782 35.746707-8.03673-0.41858 5.441536-0.753443 10.883072-1.004591 16.324608zM830.00581 583.500111l-2.009183 12.055096-14.566574-1.255739-15.906029-3.013774c10.799356-2.67891 21.598713-5.190388 32.481786-7.785583z" fill="#6172AA" p-id="4766"></path><path d="M813.346337 594.299468l14.566574 1.255739c-1.758035 6.529843-3.432354 13.059687-5.190388 19.58953l-9.125038-1.004591c0-6.529843-0.083716-13.227119-0.251148-19.840678z" fill="#5C4B4D" p-id="4767"></path><path d="M518.247644 613.805282c-0.837159-3.51607-1.674319-7.032139-2.427762-10.548209 1.590603 0.251148 3.09749 0.669728 4.604377 1.172024-0.753443 3.09749-1.506887 6.278696-2.176615 9.376185z" fill="#37A2E6" p-id="4768"></path><path d="M513.726983 578.226007c-11.887664 2.67891-23.775327 5.35782-35.746707 8.03673 3.767217-21.180133 13.143403-31.644626 34.825832-17.915211 0.41858 3.348638 0.669728 6.613559 0.920875 9.878481z" fill="#616874" p-id="4769"></path><path d="M546.627348 544.237335c0.083716 8.287878 0.083716 16.49204 0.167432 24.779918-5.7764-2.595194-11.636516-5.274104-17.412916-7.869298 0.083716-5.692684 0.251148-11.385368 0.334864-17.078052 5.608968 0 11.217936 0.083716 16.91062 0.167432z" fill="#AAC2DE" p-id="4770"></path><path d="M596.270901 502.295648c-2.846342-8.87389-5.692684-17.831496-8.539026-26.705385 2.595194-1.423171 5.106672-2.846342 7.701867-4.269513L621.553116 494.175202c-8.371594 2.67891-16.826904 5.441536-25.282215 8.120446z" fill="#8AC2EF" p-id="4771"></path><path d="M585.806409 451.480072c-3.767217-23.189316-7.618151-46.462347-11.385368-69.651664 4.939241-1.004591 9.794765-1.925467 14.734005-2.930057 3.683501 22.770736 7.283287 45.625188 10.966789 68.395924-4.688093 1.339455-9.459901 2.762626-14.315426 4.185797z" fill="#81BEF0" p-id="4772"></path><path d="M561.193922 445.452524v58.266295c-2.846342-0.083716-5.692684-0.083716-8.539026-0.167432 0.920875-19.338382 1.925467-38.676765 2.846342-57.931431 1.925467-0.083716 3.767217-0.083716 5.692684-0.167432z" fill="#CDD1DF" p-id="4773"></path><path d="M613.181522 368.433858c-1.172023-0.669728-2.26033-1.255739-3.432354-1.925467 1.172023 0.669728 2.26033 1.255739 3.432354 1.925467z" fill="#81BEF0" p-id="4774"></path></svg>